REM DIRINDEX 1\2,1\3
REM DIRNAME cjc039,folder01,folder02
TITLE ""
FILE "2181-2200.mp3" MP3
  TRACK 01 AUDIO
    TITLE "0:"
    INDEX 01 00:00:00
  TRACK 02 AUDIO
    TITLE "2:cjc039_3361"
    INDEX 01 00:00:25
  TRACK 03 AUDIO
    TITLE "0:"
    INDEX 01 00:01:52
  TRACK 04 AUDIO
    TITLE "3:cjc039_3362"
    INDEX 01 00:02:28
  TRACK 05 AUDIO
    TITLE "0:"
    INDEX 01 00:07:05
  TRACK 06 AUDIO
    TITLE "2:cjc039_3363"
    INDEX 01 00:08:54
  TRACK 07 AUDIO
    TITLE "0:"
    INDEX 01 00:10:16
  TRACK 08 AUDIO
    TITLE "3:cjc039_3364"
    INDEX 01 00:10:65
  TRACK 09 AUDIO
    TITLE "0:"
    INDEX 01 00:14:09
  TRACK 10 AUDIO
    TITLE "2:cjc039_3365"
    INDEX 01 00:15:54
  TRACK 11 AUDIO
    TITLE "0:"
    INDEX 01 00:16:51
  TRACK 12 AUDIO
    TITLE "3:cjc039_3366"
    INDEX 01 00:17:23
  TRACK 13 AUDIO
    TITLE "0:"
    INDEX 01 00:22:01
  TRACK 14 AUDIO
    TITLE "2:cjc039_3367"
    INDEX 01 00:23:50
  TRACK 15 AUDIO
    TITLE "0:"
    INDEX 01 00:24:69
  TRACK 16 AUDIO
    TITLE "3:cjc039_3368"
    INDEX 01 00:25:43
  TRACK 17 AUDIO
    TITLE "0:"
    INDEX 01 00:29:25
  TRACK 18 AUDIO
    TITLE "2:cjc039_3369"
    INDEX 01 00:31:00
  TRACK 19 AUDIO
    TITLE "0:"
    INDEX 01 00:32:15
  TRACK 20 AUDIO
    TITLE "3:cjc039_3370"
    INDEX 01 00:32:68
  TRACK 21 AUDIO
    TITLE "0:"
    INDEX 01 00:36:72
  TRACK 22 AUDIO
    TITLE "2:cjc039_3371"
    INDEX 01 00:38:49
  TRACK 23 AUDIO
    TITLE "0:"
    INDEX 01 00:39:72
  TRACK 24 AUDIO
    TITLE "3:cjc039_3372"
    INDEX 01 00:40:48
  TRACK 25 AUDIO
    TITLE "0:"
    INDEX 01 00:45:35
  TRACK 26 AUDIO
    TITLE "2:cjc039_3373"
    INDEX 01 00:47:07
  TRACK 27 AUDIO
    TITLE "0:"
    INDEX 01 00:48:06
  TRACK 28 AUDIO
    TITLE "3:cjc039_3374"
    INDEX 01 00:48:61
  TRACK 29 AUDIO
    TITLE "0:"
    INDEX 01 00:52:06
  TRACK 30 AUDIO
    TITLE "2:cjc039_3375"
    INDEX 01 00:53:60
  TRACK 31 AUDIO
    TITLE "0:"
    INDEX 01 00:55:08
  TRACK 32 AUDIO
    TITLE "3:cjc039_3376"
    INDEX 01 00:55:57
  TRACK 33 AUDIO
    TITLE "0:"
    INDEX 01 01:00:31
  TRACK 34 AUDIO
    TITLE "2:cjc039_3377"
    INDEX 01 01:02:06
  TRACK 35 AUDIO
    TITLE "0:"
    INDEX 01 01:03:16
  TRACK 36 AUDIO
    TITLE "3:cjc039_3378"
    INDEX 01 01:03:69
  TRACK 37 AUDIO
    TITLE "0:"
    INDEX 01 01:06:42
  TRACK 38 AUDIO
    TITLE "2:cjc039_3379"
    INDEX 01 01:08:23
  TRACK 39 AUDIO
    TITLE "0:"
    INDEX 01 01:09:48
  TRACK 40 AUDIO
    TITLE "3:cjc039_3380"
    INDEX 01 01:10:28
  TRACK 41 AUDIO
    TITLE "0:"
    INDEX 01 01:13:53
  TRACK 42 AUDIO
    TITLE "2:cjc039_3381"
    INDEX 01 01:15:31
  TRACK 43 AUDIO
    TITLE "0:"
    INDEX 01 01:16:52
  TRACK 44 AUDIO
    TITLE "3:cjc039_3382"
    INDEX 01 01:17:32
  TRACK 45 AUDIO
    TITLE "0:"
    INDEX 01 01:20:46
  TRACK 46 AUDIO
    TITLE "2:cjc039_3383"
    INDEX 01 01:22:21
  TRACK 47 AUDIO
    TITLE "0:"
    INDEX 01 01:23:40
  TRACK 48 AUDIO
    TITLE "3:cjc039_3384"
    INDEX 01 01:24:14
  TRACK 49 AUDIO
    TITLE "0:"
    INDEX 01 01:28:41
  TRACK 50 AUDIO
    TITLE "2:cjc039_3385"
    INDEX 01 01:30:24
  TRACK 51 AUDIO
    TITLE "0:"
    INDEX 01 01:31:24
  TRACK 52 AUDIO
    TITLE "3:cjc039_3386"
    INDEX 01 01:31:73
  TRACK 53 AUDIO
    TITLE "0:"
    INDEX 01 01:36:70
  TRACK 54 AUDIO
    TITLE "2:cjc039_3387"
    INDEX 01 01:38:42
  TRACK 55 AUDIO
    TITLE "0:"
    INDEX 01 01:39:74
  TRACK 56 AUDIO
    TITLE "3:cjc039_3388"
    INDEX 01 01:40:50
  TRACK 57 AUDIO
    TITLE "0:"
    INDEX 01 01:45:16
  TRACK 58 AUDIO
    TITLE "2:cjc039_3389"
    INDEX 01 01:46:66
  TRACK 59 AUDIO
    TITLE "0:"
    INDEX 01 01:48:07
  TRACK 60 AUDIO
    TITLE "3:cjc039_3390"
    INDEX 01 01:48:56
  TRACK 61 AUDIO
    TITLE "0:"
    INDEX 01 01:52:16
  TRACK 62 AUDIO
    TITLE "2:cjc039_3391"
    INDEX 01 01:53:69
  TRACK 63 AUDIO
    TITLE "0:"
    INDEX 01 01:55:07
  TRACK 64 AUDIO
    TITLE "3:cjc039_3392"
    INDEX 01 01:55:58
  TRACK 65 AUDIO
    TITLE "0:"
    INDEX 01 02:00:00
  TRACK 66 AUDIO
    TITLE "2:cjc039_3393"
    INDEX 01 02:01:48
  TRACK 67 AUDIO
    TITLE "0:"
    INDEX 01 02:02:48
  TRACK 68 AUDIO
    TITLE "3:cjc039_3394"
    INDEX 01 02:03:24
  TRACK 69 AUDIO
    TITLE "0:"
    INDEX 01 02:08:07
  TRACK 70 AUDIO
    TITLE "2:cjc039_3395"
    INDEX 01 02:09:62
  TRACK 71 AUDIO
    TITLE "0:"
    INDEX 01 02:10:67
  TRACK 72 AUDIO
    TITLE "3:cjc039_3396"
    INDEX 01 02:11:49
  TRACK 73 AUDIO
    TITLE "0:"
    INDEX 01 02:15:68
  TRACK 74 AUDIO
    TITLE "2:cjc039_3397"
    INDEX 01 02:17:47
  TRACK 75 AUDIO
    TITLE "0:"
    INDEX 01 02:18:39
  TRACK 76 AUDIO
    TITLE "3:cjc039_3398"
    INDEX 01 02:19:21
  TRACK 77 AUDIO
    TITLE "0:"
    INDEX 01 02:22:27
  TRACK 78 AUDIO
    TITLE "2:cjc039_3399"
    INDEX 01 02:24:08
  TRACK 79 AUDIO
    TITLE "0:"
    INDEX 01 02:25:12
  TRACK 80 AUDIO
    TITLE "3:cjc039_3400"
    INDEX 01 02:25:61
  TRACK 81 AUDIO
    TITLE "0:"
    INDEX 01 02:30:40
